<svg width="57" height="33" viewBox="0 0 57 33" fill="none" xmlns="http://www.w3.org/2000/svg">
<path fill-rule="evenodd" clip-rule="evenodd" d="M0.816631 2.59945C0.411853 1.31099 1.37414 1.43051e-05 2.72469 1.43051e-05H4.16838C5.03654 1.43051e-05 5.80555 0.560096 6.07192 1.38638L14.0716 26.2021C14.2027 26.6087 14.2001 27.0467 14.0642 27.4518L12.4921 32.1385C12.3195 32.6532 11.8373 33 11.2944 33V33C10.7426 33 10.2547 32.6418 10.0893 32.1154L0.816631 2.59945ZM12.6362 13.4637C12.5318 13.1094 12.5276 12.7332 12.6239 12.3766L15.569 1.47825C15.8047 0.605913 16.5961 0 17.4997 0H18.8186C20.1837 0 21.2259 1.35502 20.8656 2.67171C19.8031 6.55395 17.7123 14.0996 15.5012 21.4853C15.468 21.5961 15.3661 21.6719 15.2505 21.6719V21.6719C15.1344 21.6719 15.0322 21.5954 14.9994 21.4841L12.6362 13.4637ZM16.9155 27.5632C16.8047 27.1976 16.8009 26.8078 16.9046 26.4401L22.3547 7.11343C22.5978 6.25153 23.3841 5.65626 24.2796 5.65626H25.6372C26.9614 5.65626 27.92 6.91982 27.5633 8.19501L20.9057 31.9964C20.7398 32.5897 20.199 33 19.5828 33V33C18.9777 33 18.4438 32.604 18.2682 32.0249L16.9155 27.5632ZM31.8125 21.8281C31.5752 21.8281 31.3828 21.6358 31.3828 21.3984V17.4531C31.3828 17.1727 31.6102 16.9453 31.8906 16.9453V16.9453C33.5573 16.9453 34.625 16.2682 35.0938 14.9141C35.1979 14.5755 35.25 14.224 35.25 13.8594C35.25 12.4792 34.599 11.5547 33.2969 11.0859C32.8802 10.9297 32.4115 10.8516 31.8906 10.8516V10.8516C31.6102 10.8516 31.3828 10.6242 31.3828 10.3438V6.51563C31.3828 6.04101 31.7676 5.65626 32.2422 5.65626V5.65626C35.6536 5.70834 38.0495 6.91928 39.4297 9.28907C40.0807 10.4089 40.4062 11.6719 40.4062 13.0781C40.3911 14.6432 40.0833 15.9955 39.4829 17.1351C38.8496 18.3371 38.9221 20.0943 39.5117 21.3184C39.8459 22.0121 40.092 22.8331 40.25 23.7813C40.276 24.0417 40.3021 24.2891 40.3281 24.5234L40.2683 31.0184C40.2581 32.1158 39.3657 33 38.2683 33H37.3281C36.2236 33 35.3281 32.1046 35.3281 31V26.0469C35.1198 23.9635 34.5208 22.6745 33.5312 22.1797C33.0625 21.9714 32.4896 21.8542 31.8125 21.8281V21.8281Z" fill="#FFA800"/>
<path d="M26.0546 4.24074C24.7212 4.24074 23.7611 2.96057 24.1346 1.68052L24.2049 1.43979C24.4538 0.586566 25.236 7.15256e-06 26.1248 7.15256e-06H27.468C28.7984 7.15256e-06 29.758 1.2748 29.39 2.55329L29.3207 2.79402C29.074 3.65071 28.2902 4.24074 27.3987 4.24074H26.0546Z" fill="#FFA800"/>
<path d="M34.0498 4.24073C32.7164 4.24073 31.7564 2.96056 32.1299 1.68051L32.2001 1.43979C32.4491 0.586559 33.2312 3.64126e-07 34.12 8.93794e-07L54.6248 1.31132e-05C55.7294 1.37715e-05 56.6248 0.895444 56.6248 2.00001V2.24074C56.6248 3.34531 55.7294 4.24074 54.6248 4.24074L49.1248 4.24073C48.0202 4.24073 47.1248 5.13616 47.1248 6.24073V15.4312C47.1248 16.5357 48.0202 17.4312 49.1248 17.4312L54.6248 17.4312C55.7294 17.4312 56.6248 18.3266 56.6248 19.4312V19.6719C56.6248 20.7765 55.7294 21.6719 54.6248 21.6719L49.1248 21.6719C48.0202 21.6719 47.1248 22.5673 47.1248 23.6719V26.7593C47.1248 27.8639 48.0202 28.7593 49.1248 28.7593L54.6248 28.7593C55.7294 28.7593 56.6248 29.6547 56.6248 30.7593V31C56.6248 32.1046 55.7294 33 54.6248 33L47.1248 33H45.1248C44.0202 33 43.1248 32.1046 43.1248 31V6.24073C43.1248 5.13616 42.2294 4.24073 41.1248 4.24073H34.0498Z" fill="#FFA800"/>
</svg>
